<svg width="500" height="70" viewBox="0 0 500 70" fill="none" xmlns="http://www.w3.org/2000/svg">
<path d="M67.9134 34.8745C67.9134 15.5742 83.8356 0 103.772 0C123.842 0 139.764 15.5742 139.764 34.8745C139.764 54.0417 123.842 69.8819 103.772 69.8819C83.8356 69.8819 67.9134 53.9087 67.9134 34.8745ZM122.638 34.8745C122.638 25.2921 114.208 16.771 103.772 16.771C93.4691 16.771 85.1736 25.2921 85.1736 34.8745C85.1736 44.5924 93.603 53.1109 103.772 53.1109C114.208 53.1109 122.638 44.5924 122.638 34.8745Z" fill="#0062E4"/>
<path d="M428.15 35.4064C428.15 14.2418 445.476 0 461.186 0C471.933 0 478.11 3.19411 482.272 9.45196L483.884 1.19941H500V68.5521H483.884L481.869 61.6294C477.168 66.6878 471.259 69.8819 461.323 69.8819C445.61 69.8819 428.15 56.305 428.15 35.4064ZM482.945 35.2734C482.945 25.0262 474.482 16.771 464.009 16.771C453.668 16.771 445.341 25.1592 445.341 35.542C445.341 44.8583 453.802 53.2438 464.009 53.2438C474.616 53.1109 482.945 44.7253 482.945 35.2734Z" fill="#0062E4"/>
<path d="M408.833 9.42253V1.70199H391.732V67.9134H408.833V32.1893C408.833 21.4596 414.054 15.8332 423.32 15.8332C423.972 15.8332 424.496 15.8332 425.017 15.9639L428.15 0C419.275 0.130726 412.878 3.14 408.833 9.42253Z" fill="#0062E4"/>
<path d="M234.158 9.42253V1.70199H216.535L216.67 67.9134H234.295L234.158 32.1893C234.158 21.4596 239.54 15.8332 248.959 15.8332C249.631 15.8332 250.168 15.8332 250.709 15.9639L253.937 0C244.787 0.130726 238.196 3.14 234.158 9.42253Z" fill="#0062E4"/>
<path d="M146.654 42.2169V0.984253H163.863V40.0883C163.863 48.7329 168.593 53.7873 176.869 53.7873C186.065 53.7873 191.452 48.0685 191.452 37.1625V0.984253H208.661V68.2836H191.452V60.4389C187.379 66.822 180.811 69.8807 171.746 69.8807C156.244 70.0136 146.654 58.7089 146.654 42.2169Z" fill="#0062E4"/>
<path d="M315.945 34.8099C315.945 15.9428 329.566 -0.131904 350.93 0.00081604C370.823 0.00081604 384.843 15.9429 384.843 34.5419C384.843 36.4026 384.709 38.396 384.442 40.1239L333.037 39.9912C335.041 48.095 341.715 53.8071 351.73 53.9398C357.871 53.9398 364.415 51.681 368.42 46.6324L380.305 56.1987C374.161 64.8333 363.346 69.8819 351.864 69.8819C331.567 69.6165 315.945 54.4707 315.945 34.8099ZM367.353 27.9007C366.416 21.1241 359.208 15.8101 350.93 15.8101C342.785 15.8101 336.241 20.5932 333.704 27.7679L367.353 27.9007Z" fill="#0062E4"/>
<path d="M253.937 54L269.459 45.9268C272.001 51.4852 277.219 54.6611 284.443 54.6611C291.134 54.6611 293.677 52.543 293.677 49.6316C293.677 38.9114 256.747 45.3979 256.747 20.7792C256.747 7.14762 268.79 0 283.641 0C294.88 0 304.915 4.89731 310.401 14.163L295.013 22.2362C292.741 17.7355 288.458 15.2208 282.972 15.2208C277.62 15.2208 275.078 17.0745 275.078 20.1181C275.078 30.5738 312.008 23.9551 312.008 48.9705C312.008 61.941 301.304 69.8819 284.042 69.8819C269.325 69.7497 259.022 64.9846 253.937 54Z" fill="#0062E4"/>
<path d="M0 34.5152C0 15.3541 15.7897 0 35.5599 0C48.2976 0 59.3106 6.30051 65.6795 15.7474L50.8185 24.2792C47.3687 19.5545 41.9288 16.4055 35.5599 16.4055C25.343 16.4055 17.1165 24.8036 17.1165 34.3842C17.1165 43.9622 25.4755 52.3602 35.5599 52.3602C42.1941 52.3602 48.0323 48.9491 51.2167 43.831L65.9449 52.4914C59.7086 62.3341 48.4302 68.8968 35.5599 68.8968C15.7897 69.0279 0 53.2805 0 34.5152Z" fill="#0062E4"/>
</svg>
